<svg width="48" height="38" viewBox="0 0 48 38" fill="none" xmlns="http://www.w3.org/2000/svg">
<g id="Logo mark TG=Vector">
<g id="Vector">
<path d="M46.4699 17.592C47.3127 17.5266 48 18.2119 48 19.0506V21.9998C48 22.8377 47.3128 23.5083 46.4729 23.5986C44.9619 23.761 43.4837 24.1661 42.0966 24.8011C40.2811 25.6322 38.6638 26.8379 37.3515 28.3379C37.2991 28.3977 37.2524 28.4621 37.2103 28.5294C36.7646 29.2414 36.2744 29.9248 35.7425 30.5755C33.1184 33.7966 29.5576 36.1287 25.5495 37.2511C21.5415 38.3736 17.283 38.2313 13.3594 36.8439C9.43586 35.4564 6.03979 32.8919 3.63801 29.5028C1.52961 26.5277 0.278325 23.0454 0.00404397 19.4322C-0.0593438 18.5972 0.630982 17.9174 1.47518 17.9174H4.42481C5.26897 17.9174 5.94484 18.5981 6.03507 19.4307C6.28887 21.7726 7.12864 24.0224 8.48792 25.969C10.1379 28.332 12.4744 30.1348 15.183 31.1352C17.8917 32.1355 20.8427 32.2854 23.6394 31.5646C26.3969 30.8539 28.8739 29.3304 30.7473 27.1948C30.8004 27.1342 30.8478 27.069 30.8904 27.0007C31.3353 26.2888 31.8253 25.6059 32.3574 24.9561C34.4518 22.3839 37.1515 20.3673 40.2165 19.0857C41.4513 18.571 42.7355 18.1828 44.0491 17.927C44.849 17.7668 45.6574 17.655 46.4699 17.592Z" fill="#443EFF"/>
<path d="M5.2296 1.84344C5.01871 0.896998 5.74494 0 6.72211 0H10.6791C11.3962 0 12.0169 0.494534 12.1716 1.18914L15.5673 16.4356C15.6797 16.9405 16.1308 17.2999 16.652 17.2999C17.2656 17.2999 17.763 16.8065 17.763 16.1979V1.51621C17.763 0.678831 18.4473 0 19.2915 0H23.1553C23.9995 0 24.6838 0.67883 24.6838 1.51621V16.168C24.6838 16.7931 25.1947 17.2999 25.8249 17.2999C26.3603 17.2999 26.8237 16.9307 26.9392 16.4121L30.3296 1.18914C30.4843 0.494535 31.105 0 31.8221 0H35.7791C36.7563 0 37.4825 0.896997 37.2716 1.84344L33.3017 19.659C33.1469 20.3535 32.5262 20.8479 31.8092 20.8479H10.692C9.97498 20.8479 9.35432 20.3535 9.19952 19.659L5.2296 1.84344Z" fill="#443EFF"/>
</g>
</g>
</svg>
