<svg width="40" height="37" viewBox="0 0 40 37" fill="none" xmlns="http://www.w3.org/2000/svg">
<g id="Vector 4">
<path d="M24.9179 4.94053C27.1738 9.35772 21.4676 11.6315 21.4676 10.1053C21.4676 9.78828 22.7339 6.97461 24.9179 4.94053C26.9628 3.03592 29.8122 1.81481 33.1798 3.96686C36.1511 5.86571 35.2615 8.71444 33.3876 11.1303C30.8696 14.3766 26.5745 16.8412 27.4819 15.1695C28.5435 13.214 30.9577 11.3274 33.3876 11.1303C35.2615 8.71444 36.1511 5.86571 33.1798 3.96686C29.8122 1.81481 26.9628 3.03592 24.9179 4.94053Z" fill="white"/>
<path d="M2 19.7733C6.16785 16.9599 14.8834 10.4122 16.4028 6.7291C18.3021 2.12525 21.4676 0.744165 23.6834 3.19948C28.6786 8.73459 21.4676 11.821 21.4676 10.1053C21.4676 9.49147 26.2158 -0.483527 33.1798 3.96686C40.1438 8.41724 25.8992 18.0853 27.4819 15.1695C29.0647 12.2538 33.6546 9.49141 36.82 12.2537C39.9855 15.016 36.6463 21.1192 28.4316 27.4464C21.957 32.4333 18.3374 33.8746 14.8026 35" stroke="black" stroke-width="4" stroke-linecap="round"/>
</g>
</svg>
