<svg width="57" height="57" viewBox="0 0 57 57" fill="none" xmlns="http://www.w3.org/2000/svg">
<path d="M39 2L55 12" stroke="black" stroke-width="4" stroke-linecap="round"/>
<path d="M39 11L55 20" stroke="black" stroke-width="4" stroke-linecap="round"/>
<path d="M39 19L55 29" stroke="black" stroke-width="4" stroke-linecap="round"/>
<path d="M24.9179 24.9405C27.1738 29.3577 21.4676 31.6315 21.4676 30.1053C21.4676 29.7883 22.7339 26.9746 24.9179 24.9405C26.9628 23.0359 29.8122 21.8148 33.1798 23.9669C36.1511 25.8657 35.2615 28.7144 33.3876 31.1303C30.8696 34.3766 26.5745 36.8412 27.4819 35.1695C28.5435 33.214 30.9577 31.3274 33.3876 31.1303C35.2615 28.7144 36.1511 25.8657 33.1798 23.9669C29.8122 21.8148 26.9628 23.0359 24.9179 24.9405Z" fill="white"/>
<path d="M2 39.7733C6.16785 36.9599 14.8834 30.4122 16.4028 26.7291C18.3021 22.1253 21.4676 20.7442 23.6834 23.1995C28.6786 28.7346 21.4676 31.821 21.4676 30.1053C21.4676 29.4915 26.2158 19.5165 33.1798 23.9669C40.1438 28.4172 25.8992 38.0853 27.4819 35.1695C29.0647 32.2538 33.6546 29.4914 36.82 32.2537C39.9855 35.016 36.6463 41.1192 28.4316 47.4464C21.957 52.4333 18.3374 53.8746 14.8026 55" stroke="black" stroke-width="4" stroke-linecap="round"/>
</svg>
