<svg width="339" height="78" viewBox="0 0 339 78" fill="none" xmlns="http://www.w3.org/2000/svg">
<g filter="url(#filter0_d_469_875)">
<mask id="path-1-outside-1_469_875" maskUnits="userSpaceOnUse" x="0" y="0" width="339" height="71" fill="black">
<rect fill="white" width="339" height="71"/>
<path d="M16.28 52C13.3787 52 10.8827 51.36 8.792 50.08C6.70133 48.8 5.10133 47.0933 3.992 44.96C2.92533 42.8267 2.392 40.5013 2.392 37.984C2.392 36.6613 2.54133 35.4027 2.84 34.208C3.65067 30.3253 4.20533 27.8293 4.504 26.72L13.848 29.024L13.4 31.072C12.888 33.2053 12.5467 34.8907 12.376 36.128L12.312 36.832C12.312 37.9413 12.6533 38.8373 13.336 39.52C14.0187 40.16 15 40.48 16.28 40.48H35.224C35.8213 40.48 36.2907 40.352 36.632 40.096C37.016 39.7973 37.208 39.4133 37.208 38.944C37.208 38.3467 36.9307 37.7493 36.376 37.152L25.752 24.864L27.992 12.192L49.112 2.912L53.208 13.408L36.824 20.64L43.992 29.472L45.144 30.88C47.2347 33.44 48.8347 35.3387 49.944 36.576C51.0533 37.7707 52.1627 38.7307 53.272 39.456C54.424 40.1387 55.6187 40.48 56.856 40.48H57.816L58.456 45.984L57.816 52H56.856C54.808 52 52.952 51.5733 51.288 50.72C49.624 49.8667 47.832 48.48 45.912 46.56C44.8027 48.2667 43.3093 49.6107 41.432 50.592C39.5973 51.5307 37.4213 52 34.904 52H16.28ZM57.116 40.48H63.132C66.204 40.48 67.6333 39.4347 67.42 37.344C67.2067 34.912 66.716 31.584 65.948 27.36L75.484 24.992C76.9347 31.0507 77.66 35.5307 77.66 38.432C77.66 40.7787 77.148 42.9973 76.124 45.088C75.1427 47.136 73.6493 48.8 71.644 50.08C69.6387 51.36 67.164 52 64.22 52H57.116V40.48ZM55.132 58.528H63.068H63.644H71.516V66.976H63.644H63.068H55.132V58.528ZM104.427 29.408V47.456C104.427 53.8987 102.742 58.9547 99.371 62.624C96.0003 66.2933 91.179 68.128 84.907 68.128H80.875V56.608H84.907C87.467 56.608 89.387 56.352 90.667 55.84C91.9897 55.3707 92.907 54.496 93.419 53.216C93.931 51.936 94.187 50.016 94.187 47.456V29.408H104.427ZM94.187 13.088H104.107V22.688H94.187V13.088ZM119.616 57.312C121.962 57.312 123.712 57.1627 124.864 56.864C126.058 56.5653 126.89 56.0533 127.36 55.328C127.872 54.6027 128.17 53.4933 128.256 52H123.904C119.509 52 116.074 50.7413 113.6 48.224C111.125 45.664 109.888 42.1227 109.888 37.6C109.888 34.272 110.485 31.3707 111.68 28.896C112.874 26.3787 114.517 24.4587 116.608 23.136C118.741 21.7707 121.152 21.088 123.84 21.088C126.741 21.088 129.301 21.7707 131.52 23.136C133.738 24.4587 135.466 26.3787 136.704 28.896C137.941 31.3707 138.56 34.272 138.56 37.6V40.48H142.08L142.656 46.304L142.08 52H138.496C138.197 57.0773 136.512 61.152 133.44 64.224C130.368 67.296 125.76 68.832 119.616 68.832H111.424V57.312H119.616ZM119.552 36.896C119.552 39.712 121.002 41.12 123.904 41.12H128.32V37.28C128.32 35.5307 128 34.1653 127.36 33.184C126.72 32.2027 125.546 31.712 123.84 31.712C122.346 31.712 121.258 32.2027 120.576 33.184C119.893 34.1653 119.552 35.4027 119.552 36.896ZM141.43 40.48H143.03C143.713 40.48 144.225 40.3093 144.566 39.968C144.907 39.584 145.206 38.88 145.462 37.856L146.806 32.544C147.787 28.576 149.473 25.5893 151.862 23.584C154.251 21.5787 157.11 20.576 160.438 20.576C163.041 20.576 165.387 21.2587 167.478 22.624C169.611 23.9893 171.275 25.9307 172.47 28.448C173.707 30.9227 174.326 33.76 174.326 36.96C174.326 40.7147 173.665 43.808 172.342 46.24C171.062 48.6293 169.441 50.3573 167.478 51.424C165.515 52.448 163.531 52.96 161.526 52.96C160.161 52.96 158.667 52.6827 157.046 52.128C155.425 51.5733 153.185 50.656 150.326 49.376C149.259 50.1867 148.107 50.8267 146.87 51.296C145.675 51.7653 144.459 52 143.222 52H141.43V40.48ZM155.318 39.84C157.11 40.608 158.475 41.1413 159.414 41.44C160.353 41.7387 161.227 41.888 162.038 41.888C162.934 41.888 163.638 41.4613 164.15 40.608C164.705 39.712 164.982 38.5173 164.982 37.024C164.982 35.1893 164.555 33.824 163.702 32.928C162.849 31.9893 161.846 31.52 160.694 31.52C159.627 31.52 158.71 31.904 157.942 32.672C157.174 33.44 156.619 34.5067 156.278 35.872L155.318 39.84ZM201.178 57.312C203.525 57.312 205.274 57.1627 206.426 56.864C207.621 56.5653 208.453 56.0533 208.922 55.328C209.434 54.6027 209.733 53.4933 209.818 52H205.466C201.071 52 197.637 50.7413 195.162 48.224C192.687 45.664 191.45 42.1227 191.45 37.6C191.45 34.272 192.047 31.3707 193.242 28.896C194.437 26.3787 196.079 24.4587 198.17 23.136C200.303 21.7707 202.714 21.088 205.402 21.088C208.303 21.088 210.863 21.7707 213.082 23.136C215.301 24.4587 217.029 26.3787 218.266 28.896C219.503 31.3707 220.122 34.272 220.122 37.6V40.48H223.642L224.218 46.304L223.642 52H220.058C219.759 57.0773 218.074 61.152 215.002 64.224C211.93 67.296 207.322 68.832 201.178 68.832H192.986V57.312H201.178ZM201.114 36.896C201.114 39.712 202.565 41.12 205.466 41.12H209.882V37.28C209.882 35.5307 209.562 34.1653 208.922 33.184C208.282 32.2027 207.109 31.712 205.402 31.712C203.909 31.712 202.821 32.2027 202.138 33.184C201.455 34.1653 201.114 35.4027 201.114 36.896ZM244.625 29.408V38.816C244.625 39.4987 244.817 39.9467 245.201 40.16C245.627 40.3733 246.31 40.48 247.249 40.48H250.833L251.281 46.56L250.833 52H247.249C245.926 52 244.561 51.7867 243.153 51.36C241.745 50.8907 240.443 50.208 239.249 49.312C238.054 50.1653 236.71 50.8267 235.217 51.296C233.723 51.7653 232.209 52 230.673 52H222.992V40.48H230.673C232.166 40.48 233.147 40.3733 233.617 40.16C234.129 39.9467 234.385 39.4987 234.385 38.816V29.408H244.625ZM226.001 13.28H233.937H234.513H242.385V21.728H234.513H233.937H226.001V13.28ZM250.18 40.48H255.364C256.473 40.48 257.284 40.2667 257.796 39.84C258.308 39.4133 258.564 38.7093 258.564 37.728V29.408H268.804V37.536C268.804 38.4747 269.124 39.2 269.764 39.712C270.404 40.224 271.151 40.48 272.004 40.48C272.857 40.48 273.604 40.224 274.244 39.712C274.884 39.1573 275.204 38.432 275.204 37.536L275.14 29.408H285.38L285.316 37.536C285.316 38.4747 285.593 39.2 286.148 39.712C286.703 40.224 287.407 40.48 288.26 40.48C289.199 40.48 290.031 40.2027 290.756 39.648C291.481 39.0507 291.759 38.2187 291.588 37.152L289.86 27.36L299.396 24.992C300.847 31.0507 301.572 35.5307 301.572 38.432C301.572 42.272 300.505 45.4933 298.372 48.096C296.239 50.6987 292.868 52 288.26 52C285.017 52 282.351 50.8693 280.26 48.608C279.321 49.5467 278.084 50.3573 276.548 51.04C275.055 51.68 273.412 52 271.62 52C270.127 52 268.527 51.6587 266.82 50.976C265.156 50.2507 264.025 49.4613 263.428 48.608C262.831 49.5467 261.764 50.3573 260.228 51.04C258.692 51.68 256.879 52 254.788 52H250.18V40.48ZM326.557 20.64C331.335 28.064 333.597 31.584 333.341 31.2C335.175 34.144 336.093 37.0667 336.093 39.968C336.093 42.4427 335.41 44.6613 334.045 46.624C332.722 48.5013 331.101 49.8667 329.181 50.72C327.303 51.5733 324.914 52 322.013 52H318.621C315.719 52 313.181 51.488 311.005 50.464C308.829 49.44 307.165 48.3733 306.013 47.264L310.621 38.24C311.431 38.7093 312.519 39.2 313.885 39.712C315.293 40.224 316.914 40.48 318.749 40.48H321.628C322.994 40.48 323.954 40.416 324.509 40.288C325.063 40.16 325.447 39.9467 325.661 39.648C325.789 39.4347 325.853 39.2213 325.853 39.008C325.853 38.5387 325.511 37.8133 324.829 36.832L319.005 28.32L315.037 22.496L323.613 16.096L326.557 20.64Z"/>
</mask>
<path d="M16.28 52C13.3787 52 10.8827 51.36 8.792 50.08C6.70133 48.8 5.10133 47.0933 3.992 44.96C2.92533 42.8267 2.392 40.5013 2.392 37.984C2.392 36.6613 2.54133 35.4027 2.84 34.208C3.65067 30.3253 4.20533 27.8293 4.504 26.72L13.848 29.024L13.4 31.072C12.888 33.2053 12.5467 34.8907 12.376 36.128L12.312 36.832C12.312 37.9413 12.6533 38.8373 13.336 39.52C14.0187 40.16 15 40.48 16.28 40.48H35.224C35.8213 40.48 36.2907 40.352 36.632 40.096C37.016 39.7973 37.208 39.4133 37.208 38.944C37.208 38.3467 36.9307 37.7493 36.376 37.152L25.752 24.864L27.992 12.192L49.112 2.912L53.208 13.408L36.824 20.64L43.992 29.472L45.144 30.88C47.2347 33.44 48.8347 35.3387 49.944 36.576C51.0533 37.7707 52.1627 38.7307 53.272 39.456C54.424 40.1387 55.6187 40.48 56.856 40.48H57.816L58.456 45.984L57.816 52H56.856C54.808 52 52.952 51.5733 51.288 50.72C49.624 49.8667 47.832 48.48 45.912 46.56C44.8027 48.2667 43.3093 49.6107 41.432 50.592C39.5973 51.5307 37.4213 52 34.904 52H16.28ZM57.116 40.48H63.132C66.204 40.48 67.6333 39.4347 67.42 37.344C67.2067 34.912 66.716 31.584 65.948 27.36L75.484 24.992C76.9347 31.0507 77.66 35.5307 77.66 38.432C77.66 40.7787 77.148 42.9973 76.124 45.088C75.1427 47.136 73.6493 48.8 71.644 50.08C69.6387 51.36 67.164 52 64.22 52H57.116V40.48ZM55.132 58.528H63.068H63.644H71.516V66.976H63.644H63.068H55.132V58.528ZM104.427 29.408V47.456C104.427 53.8987 102.742 58.9547 99.371 62.624C96.0003 66.2933 91.179 68.128 84.907 68.128H80.875V56.608H84.907C87.467 56.608 89.387 56.352 90.667 55.84C91.9897 55.3707 92.907 54.496 93.419 53.216C93.931 51.936 94.187 50.016 94.187 47.456V29.408H104.427ZM94.187 13.088H104.107V22.688H94.187V13.088ZM119.616 57.312C121.962 57.312 123.712 57.1627 124.864 56.864C126.058 56.5653 126.89 56.0533 127.36 55.328C127.872 54.6027 128.17 53.4933 128.256 52H123.904C119.509 52 116.074 50.7413 113.6 48.224C111.125 45.664 109.888 42.1227 109.888 37.6C109.888 34.272 110.485 31.3707 111.68 28.896C112.874 26.3787 114.517 24.4587 116.608 23.136C118.741 21.7707 121.152 21.088 123.84 21.088C126.741 21.088 129.301 21.7707 131.52 23.136C133.738 24.4587 135.466 26.3787 136.704 28.896C137.941 31.3707 138.56 34.272 138.56 37.6V40.48H142.08L142.656 46.304L142.08 52H138.496C138.197 57.0773 136.512 61.152 133.44 64.224C130.368 67.296 125.76 68.832 119.616 68.832H111.424V57.312H119.616ZM119.552 36.896C119.552 39.712 121.002 41.12 123.904 41.12H128.32V37.28C128.32 35.5307 128 34.1653 127.36 33.184C126.72 32.2027 125.546 31.712 123.84 31.712C122.346 31.712 121.258 32.2027 120.576 33.184C119.893 34.1653 119.552 35.4027 119.552 36.896ZM141.43 40.48H143.03C143.713 40.48 144.225 40.3093 144.566 39.968C144.907 39.584 145.206 38.88 145.462 37.856L146.806 32.544C147.787 28.576 149.473 25.5893 151.862 23.584C154.251 21.5787 157.11 20.576 160.438 20.576C163.041 20.576 165.387 21.2587 167.478 22.624C169.611 23.9893 171.275 25.9307 172.47 28.448C173.707 30.9227 174.326 33.76 174.326 36.96C174.326 40.7147 173.665 43.808 172.342 46.24C171.062 48.6293 169.441 50.3573 167.478 51.424C165.515 52.448 163.531 52.96 161.526 52.96C160.161 52.96 158.667 52.6827 157.046 52.128C155.425 51.5733 153.185 50.656 150.326 49.376C149.259 50.1867 148.107 50.8267 146.87 51.296C145.675 51.7653 144.459 52 143.222 52H141.43V40.48ZM155.318 39.84C157.11 40.608 158.475 41.1413 159.414 41.44C160.353 41.7387 161.227 41.888 162.038 41.888C162.934 41.888 163.638 41.4613 164.15 40.608C164.705 39.712 164.982 38.5173 164.982 37.024C164.982 35.1893 164.555 33.824 163.702 32.928C162.849 31.9893 161.846 31.52 160.694 31.52C159.627 31.52 158.71 31.904 157.942 32.672C157.174 33.44 156.619 34.5067 156.278 35.872L155.318 39.84ZM201.178 57.312C203.525 57.312 205.274 57.1627 206.426 56.864C207.621 56.5653 208.453 56.0533 208.922 55.328C209.434 54.6027 209.733 53.4933 209.818 52H205.466C201.071 52 197.637 50.7413 195.162 48.224C192.687 45.664 191.45 42.1227 191.45 37.6C191.45 34.272 192.047 31.3707 193.242 28.896C194.437 26.3787 196.079 24.4587 198.17 23.136C200.303 21.7707 202.714 21.088 205.402 21.088C208.303 21.088 210.863 21.7707 213.082 23.136C215.301 24.4587 217.029 26.3787 218.266 28.896C219.503 31.3707 220.122 34.272 220.122 37.6V40.48H223.642L224.218 46.304L223.642 52H220.058C219.759 57.0773 218.074 61.152 215.002 64.224C211.93 67.296 207.322 68.832 201.178 68.832H192.986V57.312H201.178ZM201.114 36.896C201.114 39.712 202.565 41.12 205.466 41.12H209.882V37.28C209.882 35.5307 209.562 34.1653 208.922 33.184C208.282 32.2027 207.109 31.712 205.402 31.712C203.909 31.712 202.821 32.2027 202.138 33.184C201.455 34.1653 201.114 35.4027 201.114 36.896ZM244.625 29.408V38.816C244.625 39.4987 244.817 39.9467 245.201 40.16C245.627 40.3733 246.31 40.48 247.249 40.48H250.833L251.281 46.56L250.833 52H247.249C245.926 52 244.561 51.7867 243.153 51.36C241.745 50.8907 240.443 50.208 239.249 49.312C238.054 50.1653 236.71 50.8267 235.217 51.296C233.723 51.7653 232.209 52 230.673 52H222.992V40.48H230.673C232.166 40.48 233.147 40.3733 233.617 40.16C234.129 39.9467 234.385 39.4987 234.385 38.816V29.408H244.625ZM226.001 13.28H233.937H234.513H242.385V21.728H234.513H233.937H226.001V13.28ZM250.18 40.48H255.364C256.473 40.48 257.284 40.2667 257.796 39.84C258.308 39.4133 258.564 38.7093 258.564 37.728V29.408H268.804V37.536C268.804 38.4747 269.124 39.2 269.764 39.712C270.404 40.224 271.151 40.48 272.004 40.48C272.857 40.48 273.604 40.224 274.244 39.712C274.884 39.1573 275.204 38.432 275.204 37.536L275.14 29.408H285.38L285.316 37.536C285.316 38.4747 285.593 39.2 286.148 39.712C286.703 40.224 287.407 40.48 288.26 40.48C289.199 40.48 290.031 40.2027 290.756 39.648C291.481 39.0507 291.759 38.2187 291.588 37.152L289.86 27.36L299.396 24.992C300.847 31.0507 301.572 35.5307 301.572 38.432C301.572 42.272 300.505 45.4933 298.372 48.096C296.239 50.6987 292.868 52 288.26 52C285.017 52 282.351 50.8693 280.26 48.608C279.321 49.5467 278.084 50.3573 276.548 51.04C275.055 51.68 273.412 52 271.62 52C270.127 52 268.527 51.6587 266.82 50.976C265.156 50.2507 264.025 49.4613 263.428 48.608C262.831 49.5467 261.764 50.3573 260.228 51.04C258.692 51.68 256.879 52 254.788 52H250.18V40.48ZM326.557 20.64C331.335 28.064 333.597 31.584 333.341 31.2C335.175 34.144 336.093 37.0667 336.093 39.968C336.093 42.4427 335.41 44.6613 334.045 46.624C332.722 48.5013 331.101 49.8667 329.181 50.72C327.303 51.5733 324.914 52 322.013 52H318.621C315.719 52 313.181 51.488 311.005 50.464C308.829 49.44 307.165 48.3733 306.013 47.264L310.621 38.24C311.431 38.7093 312.519 39.2 313.885 39.712C315.293 40.224 316.914 40.48 318.749 40.48H321.628C322.994 40.48 323.954 40.416 324.509 40.288C325.063 40.16 325.447 39.9467 325.661 39.648C325.789 39.4347 325.853 39.2213 325.853 39.008C325.853 38.5387 325.511 37.8133 324.829 36.832L319.005 28.32L315.037 22.496L323.613 16.096L326.557 20.64Z" fill="white"/>
<path d="M8.792 50.08L9.83631 48.3743L8.792 50.08ZM3.992 44.96L2.20315 45.8544L2.21024 45.8686L2.21757 45.8827L3.992 44.96ZM2.84 34.208L4.78029 34.6931L4.78978 34.6551L4.79778 34.6168L2.84 34.208ZM4.504 26.72L4.98281 24.7782L3.08179 24.3094L2.57277 26.2001L4.504 26.72ZM13.848 29.024L15.8018 29.4514L16.2181 27.5485L14.3268 27.0822L13.848 29.024ZM13.4 31.072L15.3448 31.5387L15.3495 31.5191L15.3538 31.4994L13.4 31.072ZM12.376 36.128L10.3948 35.8547L10.3884 35.9007L10.3842 35.9469L12.376 36.128ZM12.312 36.832L10.3202 36.6509L10.312 36.7413V36.832H12.312ZM13.336 39.52L11.9218 40.9342L11.9446 40.957L11.9681 40.9791L13.336 39.52ZM36.632 40.096L37.832 41.696L37.846 41.6855L37.8599 41.6747L36.632 40.096ZM36.376 37.152L34.8631 38.4601L34.8863 38.4869L34.9104 38.5129L36.376 37.152ZM25.752 24.864L23.7825 24.5159L23.617 25.4525L24.2391 26.1721L25.752 24.864ZM27.992 12.192L27.1875 10.361L26.2086 10.791L26.0225 11.8439L27.992 12.192ZM49.112 2.912L50.9752 2.18491L50.2169 0.24195L48.3075 1.08096L49.112 2.912ZM53.208 13.408L54.0156 15.2377L55.7672 14.4645L55.0712 12.6809L53.208 13.408ZM36.824 20.64L36.0164 18.8103L33.6213 19.8675L35.2711 21.9003L36.824 20.64ZM43.992 29.472L42.4391 30.7323L42.4441 30.7385L43.992 29.472ZM45.144 30.88L46.6931 29.6149L46.6919 29.6135L45.144 30.88ZM49.944 36.576L48.4549 37.9111L48.4665 37.9241L48.4784 37.9369L49.944 36.576ZM53.272 39.456L52.1775 41.1299L52.2144 41.1541L52.2524 41.1766L53.272 39.456ZM57.816 40.48L59.8026 40.249L59.5969 38.48H57.816V40.48ZM58.456 45.984L60.4448 46.1956L60.4683 45.9742L60.4426 45.753L58.456 45.984ZM57.816 52V54H59.6145L59.8048 52.2116L57.816 52ZM51.288 50.72L50.3754 52.4996L51.288 50.72ZM45.912 46.56L47.3262 45.1458L45.5806 43.4001L44.2351 45.47L45.912 46.56ZM41.432 50.592L42.343 52.3725L42.3507 52.3685L42.3585 52.3645L41.432 50.592ZM16.28 52V50C13.6789 50 11.559 49.429 9.83631 48.3743L8.792 50.08L7.74769 51.7857C10.2063 53.291 13.0785 54 16.28 54V52ZM8.792 50.08L9.83631 48.3743C8.04929 47.2802 6.70466 45.8416 5.76643 44.0373L3.992 44.96L2.21757 45.8827C3.49801 48.3451 5.35338 50.3198 7.74769 51.7857L8.792 50.08ZM3.992 44.96L5.78085 44.0656C4.86074 42.2253 4.392 40.2085 4.392 37.984H2.392H0.392C0.392 40.7941 0.989929 43.428 2.20315 45.8544L3.992 44.96ZM2.392 37.984H4.392C4.392 36.8128 4.52409 35.7178 4.78029 34.6931L2.84 34.208L0.899715 33.7229C0.558574 35.0875 0.392 36.5098 0.392 37.984H2.392ZM2.84 34.208L4.79778 34.6168C5.61161 30.719 6.15439 28.2831 6.43523 27.2399L4.504 26.72L2.57277 26.2001C2.25628 27.3756 1.68973 29.9317 0.882218 33.7992L2.84 34.208ZM4.504 26.72L4.02519 28.6618L13.3692 30.9658L13.848 29.024L14.3268 27.0822L4.98281 24.7782L4.504 26.72ZM13.848 29.024L11.8942 28.5966L11.4462 30.6446L13.4 31.072L15.3538 31.4994L15.8018 29.4514L13.848 29.024ZM13.4 31.072L11.4552 30.6053C10.9375 32.7625 10.5787 34.5215 10.3948 35.8547L12.376 36.128L14.3572 36.4013C14.5147 35.2598 14.8385 33.6482 15.3448 31.5387L13.4 31.072ZM12.376 36.128L10.3842 35.9469L10.3202 36.6509L12.312 36.832L14.3038 37.0131L14.3678 36.3091L12.376 36.128ZM12.312 36.832H10.312C10.312 38.386 10.8075 39.8199 11.9218 40.9342L13.336 39.52L14.7502 38.1058C14.4992 37.8548 14.312 37.4967 14.312 36.832H12.312ZM13.336 39.52L11.9681 40.9791C13.1398 42.0775 14.6814 42.48 16.28 42.48V40.48V38.48C15.3186 38.48 14.8975 38.2425 14.7039 38.0609L13.336 39.52ZM16.28 40.48V42.48H35.224V40.48V38.48H16.28V40.48ZM35.224 40.48V42.48C36.0852 42.48 37.0301 42.2974 37.832 41.696L36.632 40.096L35.432 38.496C35.4894 38.453 35.5229 38.4476 35.4978 38.4545C35.4683 38.4625 35.3836 38.48 35.224 38.48V40.48ZM36.632 40.096L37.8599 41.6747C38.7103 41.0133 39.208 40.0563 39.208 38.944H37.208H35.208C35.208 38.8976 35.2197 38.8005 35.2751 38.6896C35.3295 38.5809 35.3919 38.5268 35.4041 38.5173L36.632 40.096ZM37.208 38.944H39.208C39.208 37.682 38.6129 36.6217 37.8416 35.7911L36.376 37.152L34.9104 38.5129C35.2485 38.877 35.208 39.0113 35.208 38.944H37.208ZM36.376 37.152L37.8889 35.8439L27.2649 23.5559L25.752 24.864L24.2391 26.1721L34.8631 38.4601L36.376 37.152ZM25.752 24.864L27.7215 25.2121L29.9615 12.5401L27.992 12.192L26.0225 11.8439L23.7825 24.5159L25.752 24.864ZM27.992 12.192L28.7965 14.023L49.9165 4.74304L49.112 2.912L48.3075 1.08096L27.1875 10.361L27.992 12.192ZM49.112 2.912L47.2488 3.63908L51.3448 14.1351L53.208 13.408L55.0712 12.6809L50.9752 2.18491L49.112 2.912ZM53.208 13.408L52.4004 11.5783L36.0164 18.8103L36.824 20.64L37.6316 22.4697L54.0156 15.2377L53.208 13.408ZM36.824 20.64L35.2711 21.9003L42.4391 30.7323L43.992 29.472L45.5449 28.2117L38.3769 19.3797L36.824 20.64ZM43.992 29.472L42.4441 30.7385L43.5961 32.1465L45.144 30.88L46.6919 29.6135L45.5399 28.2055L43.992 29.472ZM45.144 30.88L43.5949 32.1451C45.69 34.7105 47.3137 36.6382 48.4549 37.9111L49.944 36.576L51.4331 35.2409C50.3556 34.0391 48.7793 32.1695 46.6931 29.6149L45.144 30.88ZM49.944 36.576L48.4784 37.9369C49.674 39.2245 50.9053 40.2981 52.1775 41.1299L53.272 39.456L54.3665 37.7821C53.42 37.1632 52.4326 36.3168 51.4096 35.2151L49.944 36.576ZM53.272 39.456L52.2524 41.1766C53.6868 42.0266 55.2306 42.48 56.856 42.48V40.48V38.48C56.0068 38.48 55.1612 38.2507 54.2916 37.7354L53.272 39.456ZM56.856 40.48V42.48H57.816V40.48V38.48H56.856V40.48ZM57.816 40.48L55.8294 40.711L56.4694 46.215L58.456 45.984L60.4426 45.753L59.8026 40.249L57.816 40.48ZM58.456 45.984L56.4672 45.7724L55.8272 51.7884L57.816 52L59.8048 52.2116L60.4448 46.1956L58.456 45.984ZM57.816 52V50H56.856V52V54H57.816V52ZM56.856 52V50C55.0946 50 53.5561 49.6355 52.2006 48.9404L51.288 50.72L50.3754 52.4996C52.3479 53.5112 54.5214 54 56.856 54V52ZM51.288 50.72L52.2006 48.9404C50.7849 48.2144 49.1594 46.9789 47.3262 45.1458L45.912 46.56L44.4978 47.9742C46.5046 49.9811 48.4631 51.519 50.3754 52.4996L51.288 50.72ZM45.912 46.56L44.2351 45.47C43.3209 46.8765 42.0911 47.9907 40.5055 48.8195L41.432 50.592L42.3585 52.3645C44.5276 51.2306 46.2845 49.6568 47.5889 47.65L45.912 46.56ZM41.432 50.592L40.5211 48.8115C39.0241 49.5774 37.1738 50 34.904 50V52V54C37.6689 54 40.1706 53.4839 42.343 52.3725L41.432 50.592ZM34.904 52V50H16.28V52V54H34.904V52ZM57.116 40.48V38.48H55.116V40.48H57.116ZM67.42 37.344L65.4277 37.5188L65.4289 37.5329L65.4303 37.547L67.42 37.344ZM65.948 27.36L65.466 25.4189L63.6445 25.8713L63.9803 27.7178L65.948 27.36ZM75.484 24.992L77.429 24.5263L76.9594 22.5649L75.002 23.0509L75.484 24.992ZM76.124 45.088L74.3279 44.2083L74.3241 44.216L74.3204 44.2238L76.124 45.088ZM71.644 50.08L72.7201 51.7658V51.7658L71.644 50.08ZM57.116 52H55.116V54H57.116V52ZM55.132 58.528V56.528H53.132V58.528H55.132ZM71.516 58.528H73.516V56.528H71.516V58.528ZM71.516 66.976V68.976H73.516V66.976H71.516ZM55.132 66.976H53.132V68.976H55.132V66.976ZM57.116 40.48V42.48H63.132V40.48V38.48H57.116V40.48ZM63.132 40.48V42.48C64.8143 42.48 66.4599 42.209 67.6886 41.3103C69.0926 40.2835 69.5725 38.7368 69.4097 37.141L67.42 37.344L65.4303 37.547C65.4594 37.8322 65.4201 37.9598 65.4073 37.9929C65.4009 38.0093 65.3933 38.0334 65.3274 38.0817C65.1268 38.2284 64.5217 38.48 63.132 38.48V40.48ZM67.42 37.344L69.4123 37.1692C69.1911 34.6467 68.6879 31.2489 67.9157 27.0022L65.948 27.36L63.9803 27.7178C64.7441 31.9191 65.2223 35.1773 65.4277 37.5188L67.42 37.344ZM65.948 27.36L66.43 29.301L75.966 26.933L75.484 24.992L75.002 23.0509L65.466 25.4189L65.948 27.36ZM75.484 24.992L73.539 25.4577C74.9849 31.4966 75.66 35.7819 75.66 38.432H77.66H79.66C79.66 35.2794 78.8844 30.6048 77.429 24.5263L75.484 24.992ZM77.66 38.432H75.66C75.66 40.4763 75.2166 42.3937 74.3279 44.2083L76.124 45.088L77.9201 45.9677C79.0794 43.6009 79.66 41.0811 79.66 38.432H77.66ZM76.124 45.088L74.3204 44.2238C73.5081 45.919 72.2746 47.3048 70.5679 48.3942L71.644 50.08L72.7201 51.7658C75.0241 50.2952 76.7773 48.353 77.9276 45.9522L76.124 45.088ZM71.644 50.08L70.5679 48.3942C68.9527 49.4252 66.8733 50 64.22 50V52V54C67.4547 54 70.3247 53.2948 72.7201 51.7658L71.644 50.08ZM64.22 52V50H57.116V52V54H64.22V52ZM57.116 52H59.116V40.48H57.116H55.116V52H57.116ZM55.132 58.528V60.528H63.068V58.528V56.528H55.132V58.528ZM63.068 58.528V60.528H63.644V58.528V56.528H63.068V58.528ZM63.644 58.528V60.528H71.516V58.528V56.528H63.644V58.528ZM71.516 58.528H69.516V66.976H71.516H73.516V58.528H71.516ZM71.516 66.976V64.976H63.644V66.976V68.976H71.516V66.976ZM63.644 66.976V64.976H63.068V66.976V68.976H63.644V66.976ZM63.068 66.976V64.976H55.132V66.976V68.976H63.068V66.976ZM55.132 66.976H57.132V58.528H55.132H53.132V66.976H55.132ZM104.427 29.408H106.427V27.408H104.427V29.408ZM99.371 62.624L97.8981 61.271L99.371 62.624ZM80.875 68.128H78.875V70.128H80.875V68.128ZM80.875 56.608V54.608H78.875V56.608H80.875ZM90.667 55.84L89.9982 53.9551L89.9609 53.9684L89.9242 53.983L90.667 55.84ZM93.419 53.216L95.276 53.9588L93.419 53.216ZM94.187 29.408V27.408H92.187V29.408H94.187ZM94.187 13.088V11.088H92.187V13.088H94.187ZM104.107 13.088H106.107V11.088H104.107V13.088ZM104.107 22.688V24.688H106.107V22.688H104.107ZM94.187 22.688H92.187V24.688H94.187V22.688ZM104.427 29.408H102.427V47.456H104.427H106.427V29.408H104.427ZM104.427 47.456H102.427C102.427 53.549 100.84 58.0688 97.8981 61.271L99.371 62.624L100.844 63.977C104.644 59.8405 106.427 54.2484 106.427 47.456H104.427ZM99.371 62.624L97.8981 61.271C94.9996 64.4264 90.7739 66.128 84.907 66.128V68.128V70.128C91.5841 70.128 97.0011 68.1603 100.844 63.977L99.371 62.624ZM84.907 68.128V66.128H80.875V68.128V70.128H84.907V68.128ZM80.875 68.128H82.875V56.608H80.875H78.875V68.128H80.875ZM80.875 56.608V58.608H84.907V56.608V54.608H80.875V56.608ZM84.907 56.608V58.608C87.5414 58.608 89.7699 58.3529 91.4098 57.697L90.667 55.84L89.9242 53.983C89.0041 54.3511 87.3926 54.608 84.907 54.608V56.608ZM90.667 55.84L91.3358 57.7249C93.1891 57.0673 94.5461 55.7835 95.276 53.9588L93.419 53.216L91.562 52.4732C91.2679 53.2085 90.7903 53.6741 89.9982 53.9551L90.667 55.84ZM93.419 53.216L95.276 53.9588C95.9319 52.3189 96.187 50.0904 96.187 47.456H94.187H92.187C92.187 49.9416 91.9301 51.5531 91.562 52.4732L93.419 53.216ZM94.187 47.456H96.187V29.408H94.187H92.187V47.456H94.187ZM94.187 29.408V31.408H104.427V29.408V27.408H94.187V29.408ZM94.187 13.088V15.088H104.107V13.088V11.088H94.187V13.088ZM104.107 13.088H102.107V22.688H104.107H106.107V13.088H104.107ZM104.107 22.688V20.688H94.187V22.688V24.688H104.107V22.688ZM94.187 22.688H96.187V13.088H94.187H92.187V22.688H94.187ZM124.864 56.864L124.378 54.9237L124.37 54.9258L124.362 54.928L124.864 56.864ZM127.359 55.328L125.726 54.1746L125.702 54.2076L125.68 54.2415L127.359 55.328ZM128.255 52L130.252 52.1141L130.373 50H128.255V52ZM113.6 48.224L112.162 49.614L112.167 49.6201L112.173 49.6261L113.6 48.224ZM111.679 28.896L113.481 29.7655L113.486 29.7535L111.679 28.896ZM116.607 23.136L117.677 24.8262L117.686 24.8205L116.607 23.136ZM131.52 23.136L130.471 24.8393L130.483 24.8467L130.495 24.8539L131.52 23.136ZM136.704 28.896L134.909 29.7783L134.915 29.7904L136.704 28.896ZM138.56 40.48H136.56V42.48H138.56V40.48ZM142.079 40.48L144.07 40.2832L143.891 38.48H142.079V40.48ZM142.656 46.304L144.645 46.5052L144.665 46.3062L144.646 46.1072L142.656 46.304ZM142.079 52V54H143.887L144.069 52.2012L142.079 52ZM138.495 52V50H136.61L136.499 51.8826L138.495 52ZM133.439 64.224L134.854 65.6382L133.439 64.224ZM111.424 68.832H109.424V70.832H111.424V68.832ZM111.424 57.312V55.312H109.424V57.312H111.424ZM128.32 41.12V43.12H130.32V41.12H128.32ZM127.359 33.184L125.684 34.2765V34.2765L127.359 33.184ZM120.576 33.184L122.217 34.3261L120.576 33.184ZM119.616 57.312V59.312C122.001 59.312 123.959 59.1647 125.365 58.8L124.864 56.864L124.362 54.928C123.464 55.1607 121.923 55.312 119.616 55.312V57.312ZM124.864 56.864L125.349 58.8043C126.826 58.4349 128.196 57.7171 129.039 56.4145L127.359 55.328L125.68 54.2415C125.585 54.3896 125.29 54.6958 124.378 54.9237L124.864 56.864ZM127.359 55.328L128.993 56.4814C129.823 55.3064 130.159 53.7537 130.252 52.1141L128.255 52L126.259 51.8859C126.182 53.233 125.92 53.899 125.726 54.1746L127.359 55.328ZM128.255 52V50H123.904V52V54H128.255V52ZM123.904 52V50C119.906 50 117.037 48.8677 115.026 46.8219L113.6 48.224L112.173 49.6261C115.112 52.615 119.112 54 123.904 54V52ZM113.6 48.224L115.037 46.834C113.014 44.7404 111.887 41.7505 111.887 37.6H109.887H107.887C107.887 42.4949 109.236 46.5876 112.162 49.614L113.6 48.224ZM109.887 37.6H111.887C111.887 34.5105 112.442 31.9178 113.481 29.7655L111.679 28.896L109.878 28.0265C108.528 30.8236 107.887 34.0335 107.887 37.6H109.887ZM111.679 28.896L113.486 29.7535C114.54 27.5335 115.945 25.9218 117.677 24.8262L116.607 23.136L115.538 21.4458C113.089 22.9955 111.208 25.2239 109.873 28.0385L111.679 28.896ZM116.607 23.136L117.686 24.8205C119.477 23.674 121.509 23.088 123.84 23.088V21.088V19.088C120.794 19.088 118.005 19.8673 115.529 21.4515L116.607 23.136ZM123.84 21.088V23.088C126.414 23.088 128.603 23.6895 130.471 24.8393L131.52 23.136L132.568 21.4327C129.999 19.8519 127.068 19.088 123.84 19.088V21.088ZM131.52 23.136L130.495 24.8539C132.353 25.9614 133.827 27.577 134.909 29.7782L136.704 28.896L138.498 28.0138C137.106 25.1803 135.123 22.9559 132.544 21.4181L131.52 23.136ZM136.704 28.896L134.915 29.7904C135.988 31.9366 136.56 34.5202 136.56 37.6H138.56H140.56C140.56 34.0238 139.894 30.8048 138.492 28.0016L136.704 28.896ZM138.56 37.6H136.56V40.48H138.56H140.56V37.6H138.56ZM138.56 40.48V42.48H142.079V40.48V38.48H138.56V40.48ZM142.079 40.48L140.089 40.6768L140.665 46.5008L142.656 46.304L144.646 46.1072L144.07 40.2832L142.079 40.48ZM142.656 46.304L140.666 46.1028L140.09 51.7988L142.079 52L144.069 52.2012L144.645 46.5052L142.656 46.304ZM142.079 52V50H138.495V52V54H142.079V52ZM138.495 52L136.499 51.8826C136.224 56.5594 134.693 60.1421 132.025 62.8098L133.439 64.224L134.854 65.6382C138.33 62.1619 140.17 57.5953 140.492 52.1174L138.495 52ZM133.439 64.224L132.025 62.8098C129.461 65.3744 125.451 66.832 119.616 66.832V68.832V70.832C126.068 70.832 131.274 69.2176 134.854 65.6382L133.439 64.224ZM119.616 68.832V66.832H111.424V68.832V70.832H119.616V68.832ZM111.424 68.832H113.424V57.312H111.424H109.424V68.832H111.424ZM111.424 57.312V59.312H119.616V57.312V55.312H111.424V57.312ZM119.551 36.896H117.551C117.551 38.6277 118.001 40.2902 119.247 41.4992C120.481 42.6973 122.159 43.12 123.904 43.12V41.12V39.12C122.746 39.12 122.249 38.8387 122.032 38.6288C121.827 38.4298 121.551 37.9803 121.551 36.896H119.551ZM123.904 41.12V43.12H128.32V41.12V39.12H123.904V41.12ZM128.32 41.12H130.32V37.28H128.32H126.32V41.12H128.32ZM128.32 37.28H130.32C130.32 35.3221 129.967 33.521 129.035 32.0915L127.359 33.184L125.684 34.2765C126.032 34.8096 126.32 35.7392 126.32 37.28H128.32ZM127.359 33.184L129.035 32.0915C127.875 30.3131 125.89 29.712 123.84 29.712V31.712V33.712C125.202 33.712 125.564 34.0922 125.684 34.2765L127.359 33.184ZM123.84 31.712V29.712C121.875 29.712 120.084 30.3882 118.934 32.0419L120.576 33.184L122.217 34.3261C122.432 34.0171 122.817 33.712 123.84 33.712V31.712ZM120.576 33.184L118.934 32.0419C117.965 33.4337 117.551 35.0967 117.551 36.896H119.551H121.551C121.551 35.7086 121.82 34.897 122.217 34.3261L120.576 33.184ZM141.43 40.48V38.48H139.43V40.48H141.43ZM144.566 39.968L145.98 41.3822L146.022 41.3407L146.061 41.2967L144.566 39.968ZM145.462 37.856L143.523 37.3654L143.522 37.3709L145.462 37.856ZM146.806 32.544L148.745 33.0346L148.748 33.0242L146.806 32.544ZM151.862 23.584L150.576 22.052L151.862 23.584ZM167.478 22.624L166.384 24.2985L166.392 24.3036L166.4 24.3085L167.478 22.624ZM172.47 28.448L170.663 29.3055L170.672 29.324L170.681 29.3424L172.47 28.448ZM172.342 46.24L170.585 45.2844L170.579 45.2956L172.342 46.24ZM167.478 51.424L168.403 53.1972L168.418 53.1893L168.433 53.1812L167.478 51.424ZM157.046 52.128L156.399 54.0203L157.046 52.128ZM150.326 49.376L151.143 47.5506L150.06 47.0658L149.116 47.7837L150.326 49.376ZM146.87 51.296L146.161 49.426L146.15 49.4302L146.139 49.4345L146.87 51.296ZM141.43 52H139.43V54H141.43V52ZM155.318 39.84L153.374 39.3697L152.977 41.0125L154.53 41.6783L155.318 39.84ZM159.414 41.44L160.02 39.5341H160.02L159.414 41.44ZM164.15 40.608L162.449 39.5553L162.442 39.5671L162.435 39.579L164.15 40.608ZM163.702 32.928L162.222 34.2733L162.238 34.2905L162.254 34.3073L163.702 32.928ZM157.942 32.672L156.528 31.2578L157.942 32.672ZM156.278 35.872L154.338 35.3869L154.336 35.3943L154.334 35.4017L156.278 35.872ZM141.43 40.48V42.48H143.03V40.48V38.48H141.43V40.48ZM143.03 40.48V42.48C144.021 42.48 145.132 42.2309 145.98 41.3822L144.566 39.968L143.152 38.5538C143.186 38.52 143.22 38.4945 143.249 38.477C143.278 38.4599 143.295 38.4543 143.294 38.4546C143.287 38.4567 143.211 38.48 143.03 38.48V40.48ZM144.566 39.968L146.061 41.2967C146.744 40.528 147.134 39.4143 147.402 38.3411L145.462 37.856L143.522 37.3709C143.41 37.8169 143.301 38.1432 143.205 38.3709C143.103 38.6107 143.045 38.6684 143.071 38.6393L144.566 39.968ZM145.462 37.856L147.401 38.3466L148.745 33.0346L146.806 32.544L144.867 32.0534L143.523 37.3654L145.462 37.856ZM146.806 32.544L148.748 33.0242C149.659 29.3403 151.171 26.7754 153.148 25.1159L151.862 23.584L150.576 22.052C147.775 24.4033 145.916 27.8117 144.864 32.0638L146.806 32.544ZM151.862 23.584L153.148 25.1159C155.152 23.4341 157.546 22.576 160.438 22.576V20.576V18.576C156.674 18.576 153.351 19.7232 150.576 22.052L151.862 23.584ZM160.438 20.576V22.576C162.67 22.576 164.633 23.1549 166.384 24.2985L167.478 22.624L168.572 20.9495C166.142 19.3625 163.412 18.576 160.438 18.576V20.576ZM167.478 22.624L166.4 24.3085C168.186 25.4519 169.612 27.0916 170.663 29.3055L172.47 28.448L174.277 27.5905C172.938 24.7697 171.036 22.5267 168.556 20.9395L167.478 22.624ZM172.47 28.448L170.681 29.3424C171.759 31.4989 172.326 34.0218 172.326 36.96H174.326H176.326C176.326 33.4982 175.655 30.3464 174.259 27.5536L172.47 28.448ZM174.326 36.96H172.326C172.326 40.4946 171.702 43.2316 170.585 45.2845L172.342 46.24L174.099 47.1955C175.628 44.3844 176.326 40.9347 176.326 36.96H174.326ZM172.342 46.24L170.579 45.2956C169.444 47.4151 168.076 48.8229 166.523 49.6668L167.478 51.424L168.433 53.1812C170.806 51.8918 172.68 49.8436 174.105 47.1844L172.342 46.24ZM167.478 51.424L166.553 49.6508C164.846 50.5416 163.177 50.96 161.526 50.96V52.96V54.96C163.886 54.96 166.185 54.3544 168.403 53.1972L167.478 51.424ZM161.526 52.96V50.96C160.429 50.96 159.157 50.7364 157.693 50.2357L157.046 52.128L156.399 54.0203C158.178 54.6289 159.892 54.96 161.526 54.96V52.96ZM157.046 52.128L157.693 50.2357C156.159 49.7106 153.984 48.8225 151.143 47.5506L150.326 49.376L149.509 51.2014C152.386 52.4895 154.691 53.4361 156.399 54.0203L157.046 52.128ZM150.326 49.376L149.116 47.7837C148.2 48.4797 147.216 49.0256 146.161 49.426L146.87 51.296L147.579 53.166C148.998 52.6278 150.319 51.8936 151.536 50.9683L150.326 49.376ZM146.87 51.296L146.139 49.4345C145.168 49.8158 144.2 50 143.222 50V52V54C144.719 54 146.183 53.7149 147.601 53.1575L146.87 51.296ZM143.222 52V50H141.43V52V54H143.222V52ZM141.43 52H143.43V40.48H141.43H139.43V52H141.43ZM155.318 39.84L154.53 41.6783C156.336 42.4522 157.774 43.0168 158.808 43.3459L159.414 41.44L160.02 39.5341C159.177 39.2658 157.884 38.7638 156.106 38.0017L155.318 39.84ZM159.414 41.44L158.808 43.3459C159.902 43.694 160.983 43.888 162.038 43.888V41.888V39.888C161.472 39.888 160.804 39.7834 160.02 39.5341L159.414 41.44ZM162.038 41.888V43.888C163.725 43.888 165.04 43.0127 165.865 41.637L164.15 40.608L162.435 39.579C162.312 39.7845 162.223 39.8446 162.201 39.8576C162.189 39.8649 162.154 39.888 162.038 39.888V41.888ZM164.15 40.608L165.851 41.6607C166.666 40.3429 166.982 38.7416 166.982 37.024H164.982H162.982C162.982 38.2931 162.743 39.0811 162.449 39.5553L164.15 40.608ZM164.982 37.024H166.982C166.982 34.9201 166.496 32.9622 165.15 31.5487L163.702 32.928L162.254 34.3073C162.614 34.6858 162.982 35.4586 162.982 37.024H164.982ZM163.702 32.928L165.182 31.5827C163.992 30.2741 162.47 29.52 160.694 29.52V31.52V33.52C161.222 33.52 161.705 33.7046 162.222 34.2733L163.702 32.928ZM160.694 31.52V29.52C159.086 29.52 157.663 30.1224 156.528 31.2578L157.942 32.672L159.356 34.0862C159.757 33.6856 160.169 33.52 160.694 33.52V31.52ZM157.942 32.672L156.528 31.2578C155.438 32.3474 154.741 33.7718 154.338 35.3869L156.278 35.872L158.218 36.3571C158.497 35.2415 158.91 34.5326 159.356 34.0862L157.942 32.672ZM156.278 35.872L154.334 35.4017L153.374 39.3697L155.318 39.84L157.262 40.3103L158.222 36.3423L156.278 35.872ZM206.426 56.864L205.941 54.9237L205.932 54.9258L205.924 54.928L206.426 56.864ZM208.922 55.328L207.288 54.1746L207.265 54.2076L207.243 54.2415L208.922 55.328ZM209.818 52L211.815 52.1141L211.936 50H209.818V52ZM195.162 48.224L193.724 49.614L193.73 49.6201L193.736 49.6261L195.162 48.224ZM193.242 28.896L195.043 29.7655L195.049 29.7535L193.242 28.896ZM198.17 23.136L199.239 24.8262L199.248 24.8205L198.17 23.136ZM213.082 23.136L212.034 24.8393L212.046 24.8467L212.058 24.8539L213.082 23.136ZM218.266 28.896L216.471 29.7783L216.477 29.7904L218.266 28.896ZM220.122 40.48H218.122V42.48H220.122V40.48ZM223.642 40.48L225.632 40.2832L225.454 38.48H223.642V40.48ZM224.218 46.304L226.208 46.5052L226.228 46.3062L226.208 46.1072L224.218 46.304ZM223.642 52V54H225.45L225.632 52.2012L223.642 52ZM220.058 52V50H218.172L218.061 51.8826L220.058 52ZM215.002 64.224L216.416 65.6382L215.002 64.224ZM192.986 68.832H190.986V70.832H192.986V68.832ZM192.986 57.312V55.312H190.986V57.312H192.986ZM209.882 41.12V43.12H211.882V41.12H209.882ZM208.922 33.184L207.247 34.2765V34.2765L208.922 33.184ZM202.138 33.184L203.78 34.3261L202.138 33.184ZM201.178 57.312V59.312C203.564 59.312 205.521 59.1647 206.928 58.8L206.426 56.864L205.924 54.928C205.027 55.1607 203.486 55.312 201.178 55.312V57.312ZM206.426 56.864L206.911 58.8043C208.389 58.4349 209.758 57.7171 210.601 56.4145L208.922 55.328L207.243 54.2415C207.147 54.3896 206.853 54.6958 205.941 54.9237L206.426 56.864ZM208.922 55.328L210.556 56.4814C211.385 55.3064 211.721 53.7537 211.815 52.1141L209.818 52L207.821 51.8859C207.744 53.233 207.483 53.899 207.288 54.1746L208.922 55.328ZM209.818 52V50H205.466V52V54H209.818V52ZM205.466 52V50C201.468 50 198.599 48.8677 196.588 46.8219L195.162 48.224L193.736 49.6261C196.674 52.615 200.674 54 205.466 54V52ZM195.162 48.224L196.6 46.834C194.576 44.7404 193.45 41.7505 193.45 37.6H191.45H189.45C189.45 42.4949 190.798 46.5876 193.724 49.614L195.162 48.224ZM191.45 37.6H193.45C193.45 34.5105 194.004 31.9178 195.043 29.7655L193.242 28.896L191.441 28.0265C190.091 30.8236 189.45 34.0335 189.45 37.6H191.45ZM193.242 28.896L195.049 29.7535C196.102 27.5335 197.507 25.9218 199.239 24.8262L198.17 23.136L197.101 21.4458C194.651 22.9955 192.771 25.2239 191.435 28.0385L193.242 28.896ZM198.17 23.136L199.248 24.8205C201.04 23.674 203.072 23.088 205.402 23.088V21.088V19.088C202.356 19.088 199.567 19.8673 197.092 21.4515L198.17 23.136ZM205.402 21.088V23.088C207.977 23.088 210.165 23.6895 212.034 24.8393L213.082 23.136L214.13 21.4327C211.561 19.8519 208.63 19.088 205.402 19.088V21.088ZM213.082 23.136L212.058 24.8539C213.916 25.9614 215.389 27.577 216.471 29.7782L218.266 28.896L220.061 28.0138C218.668 25.1803 216.686 22.9559 214.106 21.4181L213.082 23.136ZM218.266 28.896L216.477 29.7904C217.55 31.9366 218.122 34.5202 218.122 37.6H220.122H222.122C222.122 34.0238 221.456 30.8048 220.055 28.0016L218.266 28.896ZM220.122 37.6H218.122V40.48H220.122H222.122V37.6H220.122ZM220.122 40.48V42.48H223.642V40.48V38.48H220.122V40.48ZM223.642 40.48L221.652 40.6768L222.228 46.5008L224.218 46.304L226.208 46.1072L225.632 40.2832L223.642 40.48ZM224.218 46.304L222.228 46.1028L221.652 51.7988L223.642 52L225.632 52.2012L226.208 46.5052L224.218 46.304ZM223.642 52V50H220.058V52V54H223.642V52ZM220.058 52L218.061 51.8826C217.786 56.5594 216.256 60.1421 213.588 62.8098L215.002 64.224L216.416 65.6382C219.893 62.1619 221.732 57.5953 222.055 52.1174L220.058 52ZM215.002 64.224L213.588 62.8098C211.023 65.3744 207.014 66.832 201.178 66.832V68.832V70.832C207.63 70.832 212.837 69.2176 216.416 65.6382L215.002 64.224ZM201.178 68.832V66.832H192.986V68.832V70.832H201.178V68.832ZM192.986 68.832H194.986V57.312H192.986H190.986V68.832H192.986ZM192.986 57.312V59.312H201.178V57.312V55.312H192.986V57.312ZM201.114 36.896H199.114C199.114 38.6277 199.564 40.2902 200.809 41.4992C202.044 42.6973 203.722 43.12 205.466 43.12V41.12V39.12C204.309 39.12 203.811 38.8387 203.595 38.6288C203.39 38.4298 203.114 37.9803 203.114 36.896H201.114ZM205.466 41.12V43.12H209.882V41.12V39.12H205.466V41.12ZM209.882 41.12H211.882V37.28H209.882H207.882V41.12H209.882ZM209.882 37.28H211.882C211.882 35.3221 211.53 33.521 210.597 32.0915L208.922 33.184L207.247 34.2765C207.594 34.8096 207.882 35.7392 207.882 37.28H209.882ZM208.922 33.184L210.597 32.0915C209.437 30.3131 207.452 29.712 205.402 29.712V31.712V33.712C206.765 33.712 207.127 34.0922 207.247 34.2765L208.922 33.184ZM205.402 31.712V29.712C203.438 29.712 201.647 30.3882 200.496 32.0419L202.138 33.184L203.78 34.3261C203.995 34.0171 204.38 33.712 205.402 33.712V31.712ZM202.138 33.184L200.496 32.0419C199.528 33.4337 199.114 35.0967 199.114 36.896H201.114H203.114C203.114 35.7086 203.383 34.897 203.78 34.3261L202.138 33.184ZM244.624 29.408H246.624V27.408H244.624V29.408ZM245.201 40.16L244.229 41.9083L244.267 41.9294L244.306 41.9489L245.201 40.16ZM250.833 40.48L252.827 40.333L252.691 38.48H250.833V40.48ZM251.281 46.56L253.274 46.7242L253.287 46.5686L253.275 46.413L251.281 46.56ZM250.833 52V54H252.675L252.826 52.1642L250.833 52ZM243.152 51.36L242.52 53.2574L242.546 53.2661L242.572 53.274L243.152 51.36ZM239.249 49.312L240.449 47.712L239.277 46.8336L238.086 47.6845L239.249 49.312ZM235.217 51.296L234.617 49.388L235.217 51.296ZM222.992 52H220.992V54H222.992V52ZM222.992 40.48V38.48H220.992V40.48H222.992ZM233.617 40.16L232.847 38.3138L232.818 38.3261L232.789 38.3393L233.617 40.16ZM234.385 29.408V27.408H232.385V29.408H234.385ZM226.001 13.28V11.28H224.001V13.28H226.001ZM242.385 13.28H244.385V11.28H242.385V13.28ZM242.385 21.728V23.728H244.385V21.728H242.385ZM226.001 21.728H224.001V23.728H226.001V21.728ZM244.624 29.408H242.624V38.816H244.624H246.624V29.408H244.624ZM244.624 38.816H242.624C242.624 39.7909 242.905 41.1725 244.229 41.9083L245.201 40.16L246.172 38.4117C246.278 38.4708 246.376 38.5498 246.457 38.6424C246.536 38.7332 246.582 38.8179 246.607 38.8762C246.651 38.9796 246.624 38.9874 246.624 38.816H244.624ZM245.201 40.16L244.306 41.9489C245.168 42.3798 246.244 42.48 247.249 42.48V40.48V38.48C246.849 38.48 246.552 38.4568 246.341 38.424C246.121 38.3895 246.061 38.3544 246.095 38.3711L245.201 40.16ZM247.249 40.48V42.48H250.833V40.48V38.48H247.249V40.48ZM250.833 40.48L248.838 40.627L249.286 46.707L251.281 46.56L253.275 46.413L252.827 40.333L250.833 40.48ZM251.281 46.56L249.287 46.3959L248.839 51.8358L250.833 52L252.826 52.1642L253.274 46.7242L251.281 46.56ZM250.833 52V50H247.249V52V54H250.833V52ZM247.249 52V50C246.143 50 244.973 49.822 243.733 49.4459L243.152 51.36L242.572 53.274C244.148 53.7514 245.709 54 247.249 54V52ZM243.152 51.36L243.785 49.4626C242.582 49.0617 241.472 48.4798 240.449 47.712L239.249 49.312L238.049 50.912C239.414 51.9362 240.907 52.7196 242.52 53.2574L243.152 51.36ZM239.249 49.312L238.086 47.6845C237.074 48.4074 235.922 48.9777 234.617 49.388L235.217 51.296L235.816 53.204C237.497 52.6756 239.034 51.9233 240.411 50.9395L239.249 49.312ZM235.217 51.296L234.617 49.388C233.314 49.7975 232.001 50 230.673 50V52V54C232.416 54 234.133 53.7331 235.816 53.204L235.217 51.296ZM230.673 52V50H222.992V52V54H230.673V52ZM222.992 52H224.992V40.48H222.992H220.992V52H222.992ZM222.992 40.48V42.48H230.673V40.48V38.48H222.992V40.48ZM230.673 40.48V42.48C231.459 42.48 232.156 42.4523 232.745 42.3883C233.29 42.329 233.911 42.2228 234.444 41.9807L233.617 40.16L232.789 38.3393C232.852 38.3105 232.748 38.3644 232.312 38.4117C231.92 38.4544 231.38 38.48 230.673 38.48V40.48ZM233.617 40.16L234.386 42.0062C235.017 41.7431 235.565 41.2935 235.929 40.6563C236.277 40.0478 236.385 39.3965 236.385 38.816H234.385H232.385C232.385 38.9182 232.364 38.8322 232.456 38.6717C232.503 38.5897 232.568 38.5091 232.647 38.4405C232.726 38.3729 232.799 38.3341 232.847 38.3138L233.617 40.16ZM234.385 38.816H236.385V29.408H234.385H232.385V38.816H234.385ZM234.385 29.408V31.408H244.624V29.408V27.408H234.385V29.408ZM226.001 13.28V15.28H233.936V13.28V11.28H226.001V13.28ZM233.936 13.28V15.28H234.512V13.28V11.28H233.936V13.28ZM234.512 13.28V15.28H242.385V13.28V11.28H234.512V13.28ZM242.385 13.28H240.385V21.728H242.385H244.385V13.28H242.385ZM242.385 21.728V19.728H234.512V21.728V23.728H242.385V21.728ZM234.512 21.728V19.728H233.936V21.728V23.728H234.512V21.728ZM233.936 21.728V19.728H226.001V21.728V23.728H233.936V21.728ZM226.001 21.728H228.001V13.28H226.001H224.001V21.728H226.001ZM250.18 40.48V38.48H248.18V40.48H250.18ZM257.796 39.84L256.516 38.3036V38.3036L257.796 39.84ZM258.564 29.408V27.408H256.564V29.408H258.564ZM268.804 29.408H270.804V27.408H268.804V29.408ZM269.764 39.712L271.013 38.1503L269.764 39.712ZM274.244 39.712L275.493 41.2737L275.524 41.2492L275.554 41.2234L274.244 39.712ZM275.204 37.536H277.204V37.5281L277.204 37.5203L275.204 37.536ZM275.14 29.408V27.408H273.124L273.14 29.4237L275.14 29.408ZM285.38 29.408L287.38 29.4237L287.396 27.408H285.38V29.408ZM285.316 37.536L283.316 37.5203L283.316 37.5281V37.536H285.316ZM286.148 39.712L284.791 41.1816L286.148 39.712ZM290.756 39.648L291.971 41.2367L292 41.2148L292.027 41.1919L290.756 39.648ZM291.588 37.152L293.563 36.836L293.56 36.8202L293.558 36.8044L291.588 37.152ZM289.86 27.36L289.378 25.4189L287.566 25.8689L287.89 27.7076L289.86 27.36ZM299.396 24.992L301.341 24.5263L300.871 22.5649L298.914 23.0509L299.396 24.992ZM280.26 48.608L281.729 47.2503L280.317 45.723L278.846 47.1938L280.26 48.608ZM276.548 51.04L277.336 52.8783L277.348 52.873L277.36 52.8676L276.548 51.04ZM266.82 50.976L266.021 52.8094L266.049 52.8216L266.077 52.833L266.82 50.976ZM263.428 48.608L265.066 47.4611L263.349 45.0072L261.741 47.5342L263.428 48.608ZM260.228 51.04L260.997 52.8862L261.019 52.8771L261.04 52.8676L260.228 51.04ZM250.18 52H248.18V54H250.18V52ZM250.18 40.48V42.48H255.364V40.48V38.48H250.18V40.48ZM255.364 40.48V42.48C256.654 42.48 258.033 42.2456 259.076 41.3764L257.796 39.84L256.516 38.3036C256.535 38.2876 256.488 38.3351 256.295 38.3858C256.099 38.4373 255.799 38.48 255.364 38.48V40.48ZM257.796 39.84L259.076 41.3764C260.227 40.4178 260.564 39.0154 260.564 37.728H258.564H256.564C256.564 38.0539 256.52 38.2317 256.492 38.3085C256.47 38.3703 256.468 38.3436 256.516 38.3036L257.796 39.84ZM258.564 37.728H260.564V29.408H258.564H256.564V37.728H258.564ZM258.564 29.408V31.408H268.804V29.408V27.408H258.564V29.408ZM268.804 29.408H266.804V37.536H268.804H270.804V29.408H268.804ZM268.804 37.536H266.804C266.804 38.9827 267.328 40.3241 268.515 41.2737L269.764 39.712L271.013 38.1503C270.92 38.0759 270.804 37.9666 270.804 37.536H268.804ZM269.764 39.712L268.515 41.2737C269.525 42.0818 270.717 42.48 272.004 42.48V40.48V38.48C271.585 38.48 271.283 38.3662 271.013 38.1503L269.764 39.712ZM272.004 40.48V42.48C273.291 42.48 274.483 42.0818 275.493 41.2737L274.244 39.712L272.995 38.1503C272.725 38.3662 272.423 38.48 272.004 38.48V40.48ZM274.244 39.712L275.554 41.2234C276.66 40.2645 277.204 38.9738 277.204 37.536H275.204H273.204C273.204 37.8902 273.108 38.0502 272.934 38.2006L274.244 39.712ZM275.204 37.536L277.204 37.5203L277.14 29.3923L275.14 29.408L273.14 29.4237L273.204 37.5517L275.204 37.536ZM275.14 29.408V31.408H285.38V29.408V27.408H275.14V29.408ZM285.38 29.408L283.38 29.3923L283.316 37.5203L285.316 37.536L287.316 37.5517L287.38 29.4237L285.38 29.408ZM285.316 37.536H283.316C283.316 38.8872 283.731 40.2024 284.791 41.1816L286.148 39.712L287.505 38.2424C287.456 38.1977 287.316 38.0621 287.316 37.536H285.316ZM286.148 39.712L284.791 41.1816C285.764 42.0797 286.975 42.48 288.26 42.48V40.48V38.48C287.839 38.48 287.641 38.3683 287.505 38.2424L286.148 39.712ZM288.26 40.48V42.48C289.625 42.48 290.886 42.0661 291.971 41.2367L290.756 39.648L289.541 38.0593C289.175 38.3393 288.773 38.48 288.26 38.48V40.48ZM290.756 39.648L292.027 41.1919C293.392 40.0682 293.826 38.4784 293.563 36.836L291.588 37.152L289.613 37.468C289.659 37.756 289.627 37.8956 289.611 37.9435C289.599 37.9773 289.579 38.0266 289.485 38.1041L290.756 39.648ZM291.588 37.152L293.558 36.8044L291.83 27.0124L289.86 27.36L287.89 27.7076L289.618 37.4996L291.588 37.152ZM289.86 27.36L290.342 29.301L299.878 26.933L299.396 24.992L298.914 23.0509L289.378 25.4189L289.86 27.36ZM299.396 24.992L297.451 25.4577C298.897 31.4966 299.572 35.7819 299.572 38.432H301.572H303.572C303.572 35.2794 302.796 30.6048 301.341 24.5263L299.396 24.992ZM301.572 38.432H299.572C299.572 41.8786 298.625 44.6329 296.825 46.8281L298.372 48.096L299.919 49.3639C302.386 46.3538 303.572 42.6654 303.572 38.432H301.572ZM298.372 48.096L296.825 46.8281C295.199 48.8125 292.503 50 288.26 50V52V54C293.233 54 297.279 52.5848 299.919 49.3639L298.372 48.096ZM288.26 52V50C285.542 50 283.419 49.0784 281.729 47.2503L280.26 48.608L278.791 49.9657C281.283 52.6603 284.493 54 288.26 54V52ZM280.26 48.608L278.846 47.1938C278.12 47.9195 277.105 48.604 275.736 49.2124L276.548 51.04L277.36 52.8676C279.063 52.1107 280.523 51.1738 281.674 50.0222L280.26 48.608ZM276.548 51.04L275.76 49.2017C274.54 49.7245 273.169 50 271.62 50V52V54C273.655 54 275.569 53.6355 277.336 52.8783L276.548 51.04ZM271.62 52V50C270.432 50 269.086 49.7284 267.563 49.119L266.82 50.976L266.077 52.833C267.967 53.589 269.821 54 271.62 54V52ZM266.82 50.976L267.619 49.1426C266.074 48.4689 265.348 47.8634 265.066 47.4611L263.428 48.608L261.79 49.7549C262.703 51.0592 264.238 52.0324 266.021 52.8094L266.82 50.976ZM263.428 48.608L261.741 47.5342C261.437 48.0118 260.764 48.6132 259.416 49.2124L260.228 51.04L261.04 52.8676C262.764 52.1015 264.225 51.0816 265.115 49.6818L263.428 48.608ZM260.228 51.04L259.459 49.1938C258.22 49.7099 256.68 50 254.788 50V52V54C257.077 54 259.164 53.6501 260.997 52.8862L260.228 51.04ZM254.788 52V50H250.18V52V54H254.788V52ZM250.18 52H252.18V40.48H250.18H248.18V52H250.18ZM326.556 20.64L328.238 19.5575L328.235 19.5525L326.556 20.64ZM333.341 31.2L335.005 30.0906L331.643 32.2578L333.341 31.2ZM334.044 46.624L335.68 47.7759L335.686 47.7661L334.044 46.624ZM329.181 50.72L328.368 48.8924L328.361 48.8958L328.353 48.8993L329.181 50.72ZM311.004 50.464L310.153 52.2736L311.004 50.464ZM306.013 47.264L304.231 46.3544L303.557 47.6756L304.625 48.7046L306.013 47.264ZM310.621 38.24L311.623 36.5091L309.798 35.4529L308.839 37.3304L310.621 38.24ZM313.884 39.712L313.182 41.5847L313.192 41.5882L313.201 41.5916L313.884 39.712ZM324.509 40.288L324.059 38.3392L324.509 40.288ZM325.66 39.648L327.288 40.8105L327.334 40.7455L327.375 40.677L325.66 39.648ZM324.828 36.832L323.178 37.9614L323.182 37.9678L323.187 37.9741L324.828 36.832ZM319.005 28.32L317.352 29.4461L317.354 29.4494L319.005 28.32ZM315.036 22.496L313.84 20.8931L312.305 22.0389L313.384 23.6221L315.036 22.496ZM323.612 16.096L325.291 15.0085L324.129 13.215L322.416 14.4931L323.612 16.096ZM326.556 20.64L324.875 21.7225C327.264 25.4344 329.024 28.1698 330.154 29.929C330.719 30.8089 331.126 31.4434 331.376 31.8335C331.501 32.0299 331.584 32.1599 331.627 32.2278C331.666 32.2903 331.644 32.2569 331.617 32.2089C331.612 32.2002 331.603 32.1846 331.593 32.1647C331.585 32.1508 331.562 32.1066 331.536 32.0481C331.522 32.0157 331.487 31.9297 331.468 31.876C331.436 31.775 331.37 31.4253 331.361 31.1751C331.538 30.4046 332.88 29.2867 333.882 29.2977C334.2 29.4132 334.598 29.6578 334.698 29.7417C334.822 29.8533 334.905 29.9589 334.908 29.9617C334.932 29.9914 334.95 30.0153 334.958 30.0261C334.975 30.0491 334.988 30.0671 334.992 30.0724C335.006 30.0922 335.014 30.1044 335.005 30.0906L333.341 31.2L331.676 32.3094C331.683 32.3196 331.702 32.3482 331.722 32.3767C331.728 32.3842 331.742 32.404 331.76 32.4282C331.768 32.4396 331.787 32.464 331.811 32.494C331.814 32.4973 331.898 32.6031 332.022 32.7148C332.122 32.7988 332.52 33.0434 332.838 33.1589C333.84 33.17 335.183 32.052 335.359 31.2815C335.35 31.0312 335.284 30.6815 335.252 30.5804C335.233 30.5265 335.198 30.4404 335.184 30.4078C335.158 30.349 335.134 30.3043 335.126 30.2898C335.115 30.2694 335.106 30.2531 335.101 30.2436C335.067 30.1826 335.018 30.1057 335.01 30.0942C334.96 30.0141 334.871 29.8741 334.745 29.6785C334.494 29.2846 334.085 28.6471 333.519 27.767C332.388 26.0062 330.628 23.2696 328.238 19.5575L326.556 20.64ZM333.341 31.2L331.643 32.2578C333.319 34.9471 334.092 37.5081 334.092 39.968H336.092H338.092C338.092 36.6252 337.031 33.3409 335.038 30.1422L333.341 31.2ZM336.092 39.968H334.092C334.092 42.0495 333.526 43.8667 332.403 45.4819L334.044 46.624L335.686 47.7661C337.293 45.456 338.092 42.8358 338.092 39.968H336.092ZM334.044 46.624L332.41 45.4721C331.275 47.0824 329.928 48.1993 328.368 48.8924L329.181 50.72L329.993 52.5476C332.273 51.534 334.169 49.9203 335.679 47.7759L334.044 46.624ZM329.181 50.72L328.353 48.8993C326.819 49.5966 324.737 50 322.013 50V52V54C325.091 54 327.788 53.55 330.008 52.5407L329.181 50.72ZM322.013 52V50H318.621V52V54H322.013V52ZM318.621 52V50C315.954 50 313.716 49.5298 311.856 48.6544L311.004 50.464L310.153 52.2736C312.645 53.4462 315.485 54 318.621 54V52ZM311.004 50.464L311.856 48.6544C309.788 47.6813 308.337 46.7254 307.4 45.8234L306.013 47.264L304.625 48.7046C305.992 50.0213 307.869 51.1987 310.153 52.2736L311.004 50.464ZM306.013 47.264L307.794 48.1736L312.402 39.1496L310.621 38.24L308.839 37.3304L304.231 46.3544L306.013 47.264ZM310.621 38.24L309.618 39.9709C310.562 40.5173 311.764 41.0526 313.182 41.5847L313.884 39.712L314.587 37.8393C313.275 37.3474 312.3 36.9014 311.623 36.5091L310.621 38.24ZM313.884 39.712L313.201 41.5916C314.871 42.1989 316.731 42.48 318.749 42.48V40.48V38.48C317.096 38.48 315.714 38.2491 314.568 37.8324L313.884 39.712ZM318.749 40.48V42.48H321.629V40.48V38.48H318.749V40.48ZM321.629 40.48V42.48C322.994 42.48 324.159 42.4213 324.958 42.2368L324.509 40.288L324.059 38.3392C323.749 38.4107 322.994 38.48 321.629 38.48V40.48ZM324.509 40.288L324.958 42.2368C325.737 42.057 326.671 41.6748 327.288 40.8105L325.66 39.648L324.033 38.4855C324.13 38.3504 324.224 38.2932 324.241 38.2837C324.249 38.2793 324.24 38.285 324.209 38.2964C324.178 38.3078 324.129 38.323 324.059 38.3392L324.509 40.288ZM325.66 39.648L327.375 40.677C327.659 40.2052 327.853 39.6404 327.853 39.008H325.853H323.853C323.853 38.8023 323.918 38.6642 323.946 38.619L325.66 39.648ZM325.853 39.008H327.853C327.853 38.3403 327.625 37.7264 327.406 37.2604C327.171 36.7601 326.848 36.2325 326.47 35.6899L324.828 36.832L323.187 37.9741C323.492 38.4129 323.681 38.7385 323.787 38.9636C323.839 39.0738 323.859 39.1364 323.865 39.1574C323.872 39.1821 323.853 39.1254 323.853 39.008H325.853ZM324.828 36.832L326.479 35.7026L320.655 27.1906L319.005 28.32L317.354 29.4494L323.178 37.9614L324.828 36.832ZM319.005 28.32L320.657 27.1939L316.689 21.3699L315.036 22.496L313.384 23.6221L317.352 29.4461L319.005 28.32ZM315.036 22.496L316.233 24.0989L324.809 17.6989L323.612 16.096L322.416 14.4931L313.84 20.8931L315.036 22.496ZM323.612 16.096L321.934 17.1835L324.878 21.7275L326.556 20.64L328.235 19.5525L325.291 15.0085L323.612 16.096Z" fill="#3E7BFF" mask="url(#path-1-outside-1_469_875)"/>
</g>
<defs>
<filter id="filter0_d_469_875" x="0.39209" y="0.241943" width="337.7" height="77.5901" filterUnits="userSpaceOnUse" color-interpolation-filters="sRGB">
<feFlood flood-opacity="0" result="BackgroundImageFix"/>
<feColorMatrix in="SourceAlpha" type="matrix" values="0 0 0 0 0 0 0 0 0 0 0 0 0 0 0 0 0 0 127 0" result="hardAlpha"/>
<feOffset dy="7"/>
<feComposite in2="hardAlpha" operator="out"/>
<feColorMatrix type="matrix" values="0 0 0 0 0.505882 0 0 0 0 0.494118 0 0 0 0 0.952941 0 0 0 1 0"/>
<feBlend mode="normal" in2="BackgroundImageFix" result="effect1_dropShadow_469_875"/>
<feBlend mode="normal" in="SourceGraphic" in2="effect1_dropShadow_469_875" result="shape"/>
</filter>
</defs>
</svg>
